<svg id="Capa_1" data-name="Capa 1" xmlns="http://www.w3.org/2000/svg" viewBox="0 0 792 612"><defs><style>.cls-1{fill:#eb7305;}</style></defs><title>Alex Logo</title><path class="cls-1" d="M50.68,376.39v54.48h63V376.39h17v130.2h-17v-61h-63v61H33.87V376.39Z"/><path class="cls-1" d="M211,506.59l-1.35-11.78h-.58c-5.22,7.34-15.26,13.91-28.59,13.91-18.93,0-28.59-13.33-28.59-26.85,0-22.6,20.09-35,56.22-34.78v-1.93c0-7.72-2.13-21.63-21.25-21.63a46.54,46.54,0,0,0-24.34,7l-3.87-11.2c7.73-5,18.93-8.31,30.72-8.31,28.59,0,35.54,19.51,35.54,38.25v35a131.45,131.45,0,0,0,1.55,22.41Zm-2.51-47.71c-18.54-.39-39.6,2.9-39.6,21.05,0,11,7.34,16.23,16,16.23,12.17,0,19.9-7.73,22.61-15.65a17.66,17.66,0,0,0,1-5.4Z"/><path class="cls-1" d="M252.34,442.27c0-11-.2-20.48-.78-29.17h14.88l.58,18.35h.77C272,418.89,282.28,411,293.68,411a18.27,18.27,0,0,1,4.83.58v16a25.94,25.94,0,0,0-5.8-.58c-12,0-20.48,9.08-22.79,21.83a47.52,47.52,0,0,0-.78,7.92v49.84h-16.8Z"/><path class="cls-1" d="M323,506.59V426H309.9V413.1H323v-4.45c0-13.13,2.9-25.11,10.82-32.64,6.38-6.19,14.88-8.7,22.8-8.7A39.48,39.48,0,0,1,371.14,370l-2.32,13.13A25.38,25.38,0,0,0,358,381c-14.49,0-18.16,12.75-18.16,27v5h22.6V426h-22.6v80.55Z"/><path class="cls-1" d="M429.47,506.59l-1.35-11.78h-.58c-5.22,7.34-15.26,13.91-28.59,13.91-18.93,0-28.59-13.33-28.59-26.85,0-22.6,20.09-35,56.21-34.78v-1.93c0-7.72-2.12-21.63-21.25-21.63a46.53,46.53,0,0,0-24.33,7l-3.87-11.2c7.73-5,18.93-8.31,30.72-8.31,28.59,0,35.54,19.51,35.54,38.25v35a131.45,131.45,0,0,0,1.55,22.41ZM427,458.88c-18.54-.39-39.6,2.9-39.6,21.05,0,11,7.34,16.23,16,16.23,12.17,0,19.9-7.73,22.6-15.65a17.68,17.68,0,0,0,1-5.4Z"/><path class="cls-1" d="M468.49,489.21a44.55,44.55,0,0,0,22.4,6.76c12.37,0,18.16-6.18,18.16-13.91,0-8.11-4.82-12.56-17.38-17.19-16.81-6-24.73-15.26-24.73-26.47,0-15.07,12.17-27.43,32.26-27.43a46.68,46.68,0,0,1,23,5.8l-4.25,12.36a36.37,36.37,0,0,0-19.13-5.41c-10,0-15.64,5.8-15.64,12.75,0,7.73,5.6,11.2,17.77,15.84,16.23,6.18,24.53,14.3,24.53,28.2,0,16.42-12.75,28-35,28-10.24,0-19.71-2.52-26.27-6.38Z"/><path class="cls-1" d="M631.91,459.07c0,34.58-24,49.65-46.56,49.65-25.3,0-44.81-18.55-44.81-48.1,0-31.3,20.47-49.65,46.36-49.65C613.75,411,631.91,430.48,631.91,459.07Zm-74.18,1c0,20.47,11.78,35.93,28.39,35.93,16.23,0,28.4-15.26,28.4-36.32,0-15.84-7.92-35.93-28-35.93S557.73,442.27,557.73,460Z"/><path class="cls-1" d="M655.08,506.59V426H642V413.1h13.13v-4.45c0-13.13,2.9-25.11,10.82-32.64,6.38-6.19,14.88-8.7,22.8-8.7A39.42,39.42,0,0,1,703.18,370l-2.31,13.13A25.38,25.38,0,0,0,690.05,381c-14.49,0-18.16,12.75-18.16,27v5h22.6V426h-22.6v80.55Z"/><path class="cls-1" d="M732.35,386.24V413.1h24.34V426H732.35v50.42c0,11.59,3.28,18.16,12.75,18.16a37.82,37.82,0,0,0,9.85-1.16l.77,12.75c-3.28,1.35-8.5,2.32-15.07,2.32-7.92,0-14.29-2.52-18.35-7.15-4.83-5-6.57-13.33-6.57-24.34V426H701.25V413.1h14.48V390.69Z"/><path class="cls-1" d="M587.84,243.69V265c0,16.71-3.54,29.16-10.71,37.45s-15.93,12.34-26.55,12.12l-27,.11-29.53.11-55.15.11H401.61V265H557V243.69H438.69c-11.27-.44-20.21-4.37-26.83-11.68s-10-18.35-10.25-33H550.3c12.57,0,21.89,3.27,28.13,9.94S587.84,227.2,587.84,243.69Z"/><path class="cls-1" d="M587.84,102.23v49.9H401.61v-2.94c0-12.89,3.64-24,10.9-33.2s16-13.76,26.37-13.76l55.15.11,29.53.11,27,.11Z"/><path class="cls-1" d="M380.78,243.63V199H193.05v2.63c0,11.52,3.66,21.47,11,29.67s16.15,12.3,26.57,12.3l55.6-.1,29.77-.1,27.23-.1Z"/><path class="cls-1" d="M338.75,314.88h49.9V96.61H385.7c-12.88,0-24,4.26-33.19,12.77s-13.76,18.78-13.76,30.9l.11,64.65.11,34.61.11,31.66Z"/><path class="cls-1" d="M271.55,314.88h-49.9V96.61h2.95c12.88,0,24,4.26,33.2,12.77s13.75,18.78,13.75,30.9l-.11,64.65-.11,34.61-.1,31.66Z"/><rect class="cls-1" x="338.75" y="264.98" width="65.79" height="49.9"/></svg>